<?xml version="1.0" standalone="no"?>
<!DOCTYPE svg PUBLIC "-//W3C//DTD SVG 20010904//EN"
 "http://www.w3.org/TR/2001/REC-SVG-20010904/DTD/svg10.dtd">
<svg version="1.0" xmlns="http://www.w3.org/2000/svg"
 width="1750.000000pt" height="1750.000000pt" viewBox="0 0 1750.000000 1750.000000"
 preserveAspectRatio="xMidYMid meet">

<g transform="translate(0.000000,1750.000000) scale(0.100000,-0.100000)"
fill="#000000" stroke="none">
<path d="M8140 16548 c-62 -68 -278 -298 -479 -512 -201 -214 -372 -398 -380
-408 -7 -11 -10 -22 -6 -26 11 -11 608 -14 935 -5 162 4 383 6 490 3 107 -3
314 -3 459 0 l264 5 -174 166 c-530 506 -956 899 -975 899 -13 0 -59 -42 -134
-122z"/>
<path d="M7138 15003 c2 -230 5 -424 7 -430 3 -9 26 -13 70 -13 l65 0 0 -1040
0 -1040 -210 0 c-115 0 -210 -2 -210 -5 0 -13 38 -78 151 -251 l119 -185 0
-172 c0 -95 3 -181 6 -192 4 -14 39 -34 122 -69 399 -167 791 -400 1089 -646
63 -52 125 -103 137 -113 20 -17 32 -17 157 -6 288 24 604 -26 806 -130 38
-19 42 -19 48 -4 3 10 3 306 -1 659 l-7 641 136 218 c76 120 137 224 137 233
0 13 -24 14 -205 8 l-205 -6 0 1050 0 1050 64 0 c62 0 64 1 67 28 2 15 3 208
1 430 l-3 402 -168 0 -169 0 -7 -140 -7 -140 -89 0 -88 0 -3 138 -3 137 -146
3 -146 3 -7 -38 c-3 -21 -6 -82 -6 -135 l0 -98 -49 0 c-26 0 -69 -3 -95 -6
l-46 -7 0 142 0 141 -144 0 c-122 0 -145 -2 -150 -16 -3 -9 -6 -72 -6 -140 l0
-124 -90 0 -90 0 0 135 0 134 -35 7 c-44 8 -251 1 -261 -9 -4 -4 -8 -65 -8
-135 l-1 -127 -92 -3 -93 -3 0 123 c0 68 -5 130 -10 138 -7 12 -41 16 -172 18
l-163 3 3 -418z m1302 -1260 c0 -54 -3 -203 -7 -330 l-6 -233 -124 0 -123 0 0
320 0 319 33 6 c30 5 88 9 185 13 l42 2 0 -97z"/>
<path d="M9660 15261 l0 -110 260 -243 c143 -134 260 -247 260 -251 0 -5 -132
-149 -292 -320 -161 -172 -310 -331 -330 -355 l-38 -42 0 -237 0 -236 53 -51
c28 -28 158 -150 287 -271 129 -121 276 -259 326 -307 49 -49 95 -88 101 -88
5 0 124 123 265 273 140 149 324 346 409 436 85 91 172 185 195 210 l41 45
114 -110 c111 -106 701 -660 787 -740 l44 -40 -169 -180 c-92 -99 -253 -272
-358 -383 -104 -112 -194 -209 -198 -217 -5 -8 -1 -60 8 -117 9 -56 16 -133
15 -172 -1 -38 -2 -75 -1 -81 1 -6 137 -139 302 -295 463 -436 477 -449 501
-449 29 0 120 94 823 851 44 48 82 87 85 88 7 1 305 -276 730 -679 91 -87 177
-168 193 -181 l28 -24 -176 -185 c-96 -102 -177 -195 -181 -207 -4 -17 7 -38
49 -90 178 -222 292 -515 332 -859 63 -542 -79 -1245 -371 -1825 -24 -49 -44
-99 -44 -113 0 -15 16 -38 48 -67 154 -140 462 -434 462 -440 0 -5 -143 -160
-317 -346 -175 -185 -372 -395 -437 -465 -66 -70 -122 -128 -125 -128 -3 0
-98 86 -210 190 -112 105 -208 190 -214 190 -5 0 -40 -27 -78 -61 l-69 -61 0
-554 c0 -472 2 -553 14 -548 8 3 227 233 488 511 593 634 411 440 2666 2843
264 281 342 370 340 387 -2 14 -108 120 -288 289 -504 473 -757 710 -1226
1149 -252 236 -515 484 -584 550 -69 67 -262 249 -429 406 -451 421 -2521
2363 -2841 2665 -127 119 -815 764 -1058 992 -95 89 -178 162 -183 162 -5 0
-9 -49 -9 -109z m5788 -5538 c186 -175 397 -374 470 -442 72 -68 132 -128 132
-133 0 -5 -105 -120 -232 -256 -261 -278 -506 -539 -587 -626 l-53 -57 -32 28
c-17 15 -71 66 -121 113 -49 47 -148 139 -220 205 -110 102 -208 195 -533 502
l-45 43 34 39 c40 47 843 901 847 901 1 0 154 -143 340 -317z"/>
<path d="M6734 15047 c-115 -122 -279 -296 -365 -387 -85 -91 -326 -347 -534
-570 -209 -223 -555 -592 -770 -820 -215 -228 -730 -777 -1144 -1220 -415
-443 -847 -904 -961 -1025 -113 -121 -282 -301 -375 -400 -393 -420 -1524
-1625 -1682 -1793 -95 -101 -178 -192 -183 -202 -14 -26 -78 38 630 -625 141
-132 616 -577 1055 -990 1381 -1296 1384 -1299 1389 -1294 13 15 66 132 66
147 0 23 -471 465 -561 526 -35 24 -103 68 -150 99 -149 95 -259 228 -353 428
-70 146 -100 277 -100 429 1 222 39 298 376 751 76 102 138 195 138 206 0 12
-23 41 -52 69 -155 142 -328 310 -328 318 0 5 42 52 93 105 207 212 817 871
817 881 0 10 -90 98 -286 281 -428 398 -664 623 -662 629 2 4 154 168 338 366
184 197 379 406 433 464 55 58 103 106 107 108 4 2 97 -82 207 -185 402 -381
502 -473 512 -473 28 0 -54 162 -152 300 -33 47 -128 165 -210 263 -82 98
-148 179 -146 181 2 1 83 10 179 20 313 29 444 21 724 -50 129 -32 163 -36
140 -15 -5 4 -88 61 -184 126 -205 139 -185 124 -178 131 10 10 490 126 593
143 l99 17 -114 110 c-88 85 -378 357 -487 458 -14 13 -31 -7 507 566 163 173
312 333 332 355 l36 39 93 -90 c52 -49 259 -244 462 -433 202 -189 367 -347
367 -351 0 -4 -117 -133 -261 -286 -143 -154 -274 -296 -290 -316 l-31 -38 51
0 c101 0 509 -71 671 -116 57 -17 335 -103 358 -112 11 -4 13 17 10 109 l-3
114 -213 329 -212 328 218 232 c120 127 248 263 285 302 l67 71 0 351 0 350
-67 63 c-85 79 -513 477 -532 495 -17 16 -14 19 257 308 l202 216 0 109 c0 60
-4 112 -9 115 -5 3 -102 -94 -217 -217z m-4740 -5630 c147 -140 523 -494 700
-659 l71 -66 -46 -49 c-25 -26 -153 -163 -284 -303 -438 -467 -549 -585 -557
-588 -4 -2 -117 99 -250 224 -134 125 -343 322 -466 437 l-223 210 29 31 c16
17 107 115 203 217 96 102 282 301 414 442 132 141 242 256 244 257 2 0 76
-69 165 -153z"/>
<path d="M10388 12509 c-65 -9 -191 -56 -264 -98 -63 -37 -152 -117 -198 -179
-156 -213 -190 -498 -89 -751 82 -206 265 -373 468 -426 366 -95 706 40 863
343 68 130 87 213 87 382 0 131 -3 154 -28 235 -75 240 -233 394 -477 466 -54
16 -258 42 -295 38 -5 -1 -35 -5 -67 -10z"/>
<path d="M5445 11830 c-188 -15 -445 -62 -445 -82 0 -5 35 -44 78 -86 103
-102 172 -237 196 -384 l7 -36 -113 40 c-362 130 -655 198 -852 198 -61 0 -76
-3 -76 -15 0 -8 34 -58 75 -111 223 -285 311 -512 272 -700 -45 -212 -218
-403 -582 -640 -66 -42 -122 -79 -124 -81 -2 -2 14 -40 37 -85 98 -196 104
-386 21 -645 -93 -291 -250 -554 -691 -1154 -359 -490 -368 -505 -375 -679 -8
-175 46 -351 161 -523 56 -85 154 -187 179 -187 15 0 46 23 166 123 l70 58
103 -45 c159 -69 212 -80 368 -80 118 0 142 3 193 23 166 66 247 205 247 422
l0 96 312 323 312 322 41 -6 c22 -3 85 -12 140 -21 55 -8 161 -15 235 -15 224
0 400 36 566 114 292 138 456 345 539 681 l8 30 7 -25 c13 -43 11 -143 -5
-205 -36 -139 -134 -297 -286 -459 -120 -128 -277 -267 -661 -583 -734 -605
-1001 -860 -1276 -1221 -352 -462 -548 -946 -587 -1454 l-7 -88 1207 0 c1144
0 1206 1 1201 18 -3 9 -18 67 -35 127 -101 377 -258 942 -265 954 -3 4 -45 11
-93 14 -108 7 -186 27 -279 73 -171 84 -301 244 -349 429 -19 75 -19 213 0
285 44 168 192 347 355 430 114 58 299 84 437 60 186 -31 368 -173 457 -356
60 -121 79 -209 74 -338 -5 -126 -27 -203 -84 -298 -29 -47 -33 -61 -24 -78
11 -20 150 -211 479 -660 95 -129 181 -240 192 -248 19 -13 19 4 19 1063 0
1016 -1 1076 -17 1081 -246 74 -415 243 -473 470 -45 176 -4 374 108 524 86
114 237 214 389 255 83 23 252 17 343 -13 202 -66 362 -236 415 -442 21 -82
21 -234 0 -315 -24 -94 -87 -212 -164 -308 -39 -48 -71 -91 -71 -94 0 -3 41
-137 91 -297 50 -160 142 -457 206 -661 63 -203 118 -374 122 -378 16 -17 29
22 44 133 9 63 41 291 71 505 74 527 185 1312 246 1749 27 197 50 367 50 377
0 10 -20 32 -47 50 -162 111 -256 239 -302 411 -45 167 -33 306 39 456 77 160
228 276 417 318 105 23 321 16 415 -15 187 -60 337 -225 388 -427 33 -126 23
-326 -19 -412 -77 -158 -125 -216 -237 -292 -42 -27 -81 -50 -89 -50 -7 0 -18
-7 -25 -15 -15 -17 -22 58 81 -845 38 -338 103 -914 144 -1279 42 -366 78
-667 80 -670 3 -3 12 2 19 10 14 14 436 1355 436 1384 0 9 -31 46 -68 83 -129
127 -201 289 -210 468 -4 89 -1 113 22 195 38 134 93 224 209 345 l98 102 -11
924 c-6 507 -15 933 -20 945 -13 32 -180 147 -305 209 -167 83 -326 114 -579
114 -112 0 -156 -6 -156 -20 0 -4 33 -41 73 -81 107 -108 203 -262 278 -443
21 -50 37 -92 36 -93 -1 0 -33 9 -72 23 -38 13 -82 24 -97 24 -25 0 -33 10
-69 83 -168 334 -548 687 -1095 1020 -170 103 -459 242 -721 346 -188 75 -487
158 -720 202 -247 45 -584 66 -798 49z m-828 -2396 c50 -38 67 -70 71 -139 4
-55 1 -70 -21 -107 -37 -64 -92 -91 -172 -86 -49 3 -70 10 -99 31 -42 33 -76
93 -76 137 0 62 60 156 115 181 37 16 152 5 182 -17z"/>
<path d="M9837 10833 c-9 -8 -9 -1431 0 -1888 l6 -350 171 0 c197 0 251 -11
385 -76 62 -31 102 -60 156 -113 81 -81 121 -146 161 -261 24 -71 27 -94 28
-215 0 -120 -3 -144 -27 -215 -74 -222 -239 -381 -444 -429 -34 -7 -66 -17
-72 -21 -8 -4 -11 -118 -11 -361 l0 -354 247 2 247 3 26 90 c46 159 111 261
242 385 l69 65 14 240 c14 226 27 443 76 1300 11 198 45 770 74 1270 36 624
50 914 43 923 -8 9 -160 12 -698 12 -377 0 -690 -3 -693 -7z"/>
<path d="M12525 10804 c-16 -2 -65 -9 -108 -15 -122 -16 -368 -82 -532 -141
-174 -64 -463 -192 -486 -216 -14 -14 -19 -58 -28 -237 -7 -121 -23 -407 -36
-635 -13 -228 -36 -617 -50 -865 -14 -247 -36 -641 -50 -875 -13 -234 -27
-479 -31 -545 l-7 -121 149 0 c133 0 158 -3 239 -28 138 -42 217 -89 315 -186
98 -97 139 -170 168 -294 l17 -76 242 0 242 0 68 59 c121 104 366 363 476 501
207 260 343 477 492 783 183 378 297 752 342 1132 19 157 21 485 4 605 -71
496 -287 847 -629 1024 -95 48 -201 87 -309 112 -66 15 -417 28 -488 18z"/>
<path d="M8510 9814 c-234 -50 -395 -258 -393 -504 3 -202 109 -367 293 -457
63 -30 79 -42 80 -60 0 -12 -31 -244 -70 -515 -38 -271 -90 -639 -114 -818
-41 -296 -132 -943 -252 -1800 -25 -179 -47 -327 -50 -329 -2 -2 -6 2 -8 10
-17 49 -484 1562 -572 1850 l-45 145 79 80 c189 192 233 432 120 664 -104 215
-386 335 -602 256 -287 -104 -433 -384 -349 -669 54 -184 220 -333 411 -369
32 -6 63 -12 71 -14 10 -3 12 -21 7 -82 -3 -42 -8 -632 -12 -1309 -4 -678 -10
-1233 -14 -1233 -3 0 -213 289 -465 643 -253 353 -468 654 -479 669 l-19 27
30 38 c81 105 113 193 114 313 1 99 -12 161 -52 245 -89 189 -269 311 -474
322 -79 5 -100 2 -170 -22 -145 -48 -240 -130 -300 -258 -81 -170 -67 -373 37
-528 96 -143 273 -221 505 -222 l101 0 27 -101 c15 -56 74 -270 132 -476 57
-206 137 -494 178 -640 317 -1140 323 -1162 336 -1175 6 -6 121 -10 322 -9
391 1 540 19 782 91 229 69 463 233 611 429 60 80 159 242 191 314 12 25 39
84 62 132 l42 88 64 -128 c207 -413 464 -647 845 -772 175 -57 350 -85 630
-100 220 -11 596 2 615 21 6 8 49 169 95 359 45 190 131 548 191 795 60 248
141 583 180 745 128 533 110 474 150 482 19 4 71 14 115 21 260 47 434 250
434 507 -1 247 -133 438 -357 515 -195 66 -380 31 -523 -102 -113 -104 -171
-234 -172 -387 -2 -148 48 -277 158 -410 34 -41 52 -71 47 -79 -20 -34 -978
-1314 -999 -1337 -12 -12 -14 187 -14 1343 0 1078 3 1358 13 1361 6 2 46 9 87
15 93 14 217 73 278 131 103 99 151 211 159 365 8 165 -41 305 -147 419 -102
108 -220 156 -391 157 -471 3 -716 -531 -412 -896 38 -46 122 -120 171 -151 2
-2 -46 -155 -106 -341 -125 -381 -327 -1020 -457 -1438 -47 -154 -89 -287 -92
-295 -10 -27 1 -111 -113 870 -33 283 -69 587 -80 675 -24 199 -44 373 -115
980 -31 264 -69 580 -84 702 l-27 222 81 40 c202 101 307 245 322 443 27 356
-282 619 -637 542z"/>
<path d="M16620 8389 c-52 -21 -120 -109 -120 -157 0 -26 -11 -34 -26 -21 -10
8 -21 3 -44 -22 -16 -19 -30 -38 -30 -45 0 -9 104 -110 308 -299 l54 -50 36
40 36 39 -133 127 c-132 124 -134 127 -127 161 13 71 73 132 118 120 12 -3 78
-58 149 -124 70 -65 134 -118 142 -118 8 0 27 16 41 35 l27 35 -104 100 c-192
185 -243 212 -327 179z"/>
<path d="M16139 8119 c-16 -17 -29 -37 -29 -43 0 -17 53 -66 71 -66 15 0 69
62 69 79 0 12 -58 61 -72 61 -5 0 -23 -14 -39 -31z"/>
<path d="M16261 8008 c-17 -17 -31 -37 -31 -42 0 -16 338 -330 359 -334 23 -4
75 52 65 70 -10 15 -351 338 -357 338 -3 0 -19 -14 -36 -32z"/>
<path d="M16064 7796 c-93 -43 -153 -152 -139 -250 14 -90 98 -193 188 -231
91 -38 211 -4 286 81 35 40 91 140 91 163 0 11 -68 71 -80 71 -5 0 -14 -19
-21 -42 -34 -129 -127 -207 -213 -178 -68 22 -67 33 15 118 41 42 94 98 119
124 l44 48 -34 36 c-42 44 -123 84 -170 84 -19 0 -58 -11 -86 -24z m121 -88
c14 -6 25 -16 25 -21 0 -9 -146 -169 -160 -175 -10 -4 -30 46 -30 74 0 40 30
95 64 115 36 22 64 24 101 7z"/>
<path d="M4853 7519 c-104 -107 -216 -223 -249 -259 l-61 -65 -6 -78 -6 -79
42 -45 c22 -24 58 -58 79 -74 l38 -31 118 107 c64 59 196 173 292 253 161 135
337 303 411 395 l31 37 -104 0 c-95 1 -199 8 -339 26 l-57 6 -189 -193z"/>
<path d="M15783 7498 c-36 -38 -63 -89 -63 -117 0 -23 -16 -36 -25 -21 -12 19
-40 9 -68 -25 l-28 -34 98 -94 c195 -186 262 -247 269 -247 14 0 64 53 64 68
0 8 -54 66 -120 129 -72 69 -120 123 -120 134 0 36 29 90 70 131 l42 40 -33
34 c-18 19 -38 34 -44 34 -6 0 -25 -15 -42 -32z"/>
<path d="M15481 7150 c-51 -12 -112 -60 -146 -115 -26 -42 -30 -58 -30 -119 0
-84 20 -131 81 -193 62 -62 117 -87 189 -87 101 0 195 64 253 172 39 73 40 91
4 125 -41 40 -56 35 -71 -23 -24 -93 -100 -170 -169 -170 -27 0 -83 20 -101
36 -2 2 48 57 110 124 63 66 116 128 117 136 2 9 -11 29 -30 45 -68 60 -141
84 -207 69z m93 -115 c18 -13 15 -19 -59 -97 -43 -46 -82 -85 -87 -87 -31 -11
-38 98 -10 142 10 15 27 34 38 42 24 18 93 19 118 0z"/>
<path d="M15142 6817 c-18 -18 -32 -39 -32 -45 0 -7 36 -87 80 -178 56 -117
74 -163 62 -160 -9 3 -89 35 -177 70 -87 35 -165 62 -172 59 -6 -3 -24 -21
-39 -40 -21 -28 -24 -37 -13 -44 7 -4 121 -49 253 -100 l239 -92 34 37 c19 20
32 40 30 44 -2 4 -52 114 -112 245 -59 130 -111 237 -114 237 -4 0 -21 -15
-39 -33z"/>
<path d="M12070 6382 c0 -117 -74 -276 -175 -377 -99 -99 -211 -155 -352 -175
-36 -5 -70 -13 -75 -18 -8 -8 -101 -403 -96 -407 6 -5 1134 16 1176 21 l42 5
0 495 0 494 -260 0 -260 0 0 -38z"/>
<path d="M10383 6393 l-183 -3 -6 -25 c-3 -13 -4 -229 -2 -479 2 -356 6 -458
16 -468 9 -9 50 -14 123 -16 92 -3 114 -1 129 13 9 9 71 86 136 171 66 86 156
204 201 263 46 58 83 113 83 121 0 8 -27 56 -60 105 -66 99 -96 167 -106 243
-3 27 -9 54 -13 60 -9 15 -102 19 -318 15z"/>
<path d="M14725 6365 c-51 -18 -107 -80 -125 -140 l-15 -46 -77 70 c-42 39
-83 71 -91 71 -8 0 -26 -15 -40 -33 l-26 -34 92 -90 c149 -145 405 -383 413
-383 15 0 64 54 64 71 0 10 -12 27 -26 38 -15 12 -73 66 -130 120 l-104 99 15
48 c18 59 59 104 97 104 30 0 51 -16 201 -157 48 -46 96 -83 107 -83 18 0 60
48 60 68 0 13 -256 250 -288 266 -44 22 -85 25 -127 11z"/>
<path d="M14403 6020 c-100 -45 -167 -141 -166 -239 1 -73 21 -119 80 -182
143 -154 349 -123 434 65 25 56 24 78 -9 109 -42 41 -57 35 -71 -26 -22 -102
-101 -162 -178 -136 -41 13 -118 80 -139 120 -22 44 -18 97 12 136 24 32 89
73 117 73 7 0 21 6 31 13 18 13 17 15 -10 41 -46 44 -56 46 -101 26z"/>
<path d="M14002 5603 c-39 -19 -139 -126 -166 -177 l-19 -36 24 -26 c48 -51
56 -50 88 14 31 62 109 142 139 142 10 0 26 -6 37 -13 17 -13 15 -18 -32 -78
-58 -74 -78 -110 -87 -159 -12 -67 28 -140 96 -176 39 -20 117 -18 155 6 42
25 91 93 99 136 5 26 11 34 28 34 22 0 76 47 76 66 0 12 -261 253 -292 271
-32 17 -107 16 -146 -4z m268 -275 c0 -37 -33 -102 -62 -122 -31 -22 -74 -20
-98 4 -37 37 -22 88 53 183 l30 38 38 -37 c27 -27 39 -47 39 -66z"/>
<path d="M12360 5235 c10 -12 -2 -29 -70 -102 -46 -49 -243 -259 -438 -468
-195 -209 -359 -382 -364 -383 -4 -2 -66 51 -138 119 -71 67 -138 128 -149
135 -24 17 -13 52 -96 -301 -61 -256 -179 -745 -191 -787 -3 -10 -1 -18 5 -18
5 0 279 287 608 638 947 1008 1093 1164 1093 1173 0 5 -61 9 -136 9 -119 0
-135 -2 -124 -15z"/>
<path d="M13650 5224 c-62 -27 -106 -83 -124 -157 l-7 -28 -78 70 c-43 39 -85
71 -94 71 -15 0 -57 -49 -57 -68 0 -8 424 -413 478 -456 23 -18 24 -18 53 10
16 15 29 35 29 44 0 9 -56 69 -125 134 -91 86 -125 124 -125 141 0 61 55 135
100 135 33 0 71 -28 206 -155 l106 -99 29 34 c16 19 29 40 29 47 0 16 -244
244 -284 265 -49 25 -97 30 -136 12z"/>
<path d="M13334 4881 c-227 -103 -215 -388 20 -497 94 -44 185 -25 266 56 43
43 79 109 80 146 0 24 -65 88 -81 79 -5 -4 -9 -16 -9 -28 0 -37 -46 -123 -78
-145 -43 -31 -98 -29 -154 7 -113 72 -139 182 -60 254 11 10 46 29 78 42 32
13 60 28 62 33 3 9 -66 72 -78 72 -3 0 -24 -9 -46 -19z"/>
<path d="M12841 4598 c-75 -44 -159 -130 -188 -195 -50 -108 -15 -220 81 -264
81 -37 142 -20 273 76 42 30 87 58 101 62 60 15 110 -36 98 -102 -14 -70 -125
-167 -226 -196 -25 -7 -49 -16 -55 -21 -13 -11 64 -88 88 -88 29 0 115 53 179
110 138 123 158 298 44 385 -77 58 -142 47 -287 -50 -119 -80 -150 -89 -187
-55 -26 24 -29 77 -8 119 28 54 162 151 209 151 7 0 18 5 25 12 9 9 4 20 -25
50 -20 21 -44 38 -53 38 -8 0 -39 -15 -69 -32z"/>
<path d="M5200 4395 c114 -114 1274 -1203 1278 -1200 4 4 -295 1095 -329 1202
-9 28 -13 31 -29 23 -11 -6 -87 -83 -171 -173 -83 -89 -155 -163 -159 -165 -4
-2 -99 83 -211 189 -112 105 -214 195 -227 200 -13 5 -71 9 -130 9 l-107 0 85
-85z"/>
<path d="M8526 4013 c-77 -155 -131 -236 -228 -338 -187 -198 -403 -305 -732
-362 -140 -24 -179 -26 -538 -30 -214 -3 -388 -8 -388 -12 0 -4 47 -169 104
-367 57 -197 109 -378 115 -400 l11 -42 153 -6 c83 -3 908 -7 1832 -8 l1680
-3 33 155 c99 462 158 745 156 749 -2 2 -119 -2 -261 -9 -555 -28 -902 9
-1189 124 -249 99 -482 322 -622 593 -21 42 -43 73 -52 73 -10 0 -37 -44 -74
-117z"/>
<path d="M12396 3895 c-30 -28 -65 -99 -66 -132 0 -27 -7 -29 -30 -8 -16 14
-20 13 -49 -10 -17 -15 -31 -35 -31 -44 0 -22 332 -335 359 -339 18 -3 61 43
61 66 0 6 -54 61 -120 123 -66 62 -120 118 -120 123 0 39 28 95 67 138 l46 49
-28 29 c-35 37 -54 38 -89 5z"/>
<path d="M12064 3536 c-82 -36 -154 -139 -154 -222 0 -142 139 -284 279 -284
70 0 126 25 180 79 48 48 101 137 101 169 0 22 -52 77 -73 77 -5 0 -18 -28
-29 -62 -23 -76 -75 -135 -134 -153 -36 -11 -47 -10 -89 9 l-47 21 101 109
c55 59 108 114 116 121 24 20 17 46 -22 80 -73 65 -160 86 -229 56z m122 -107
c17 -14 10 -26 -82 -120 -62 -65 -69 -70 -81 -53 -18 24 -16 88 2 125 32 60
116 86 161 48z"/>
<path d="M11710 3165 l-33 -34 113 -108 c62 -59 121 -114 131 -121 25 -18 24
-58 -3 -112 -26 -51 -63 -76 -99 -67 -13 3 -82 60 -153 127 -71 66 -133 120
-137 120 -4 0 -21 -17 -39 -37 l-33 -37 119 -113 c157 -149 193 -173 258 -173
83 0 145 53 175 151 9 27 16 36 29 32 21 -5 75 49 70 69 -4 16 -342 338 -355
338 -5 0 -24 -16 -43 -35z"/>
<path d="M11304 2726 c-18 -8 -51 -31 -74 -52 -41 -38 -120 -144 -120 -162 0
-9 66 -72 75 -72 2 0 18 27 36 60 39 74 98 130 137 130 57 0 57 -13 -3 -91
-70 -93 -94 -161 -76 -219 26 -87 119 -142 203 -119 59 15 123 81 140 142 9
36 16 46 28 42 21 -7 83 57 74 76 -10 23 -262 253 -292 266 -36 16 -90 15
-128 -1z m221 -217 c25 -22 35 -39 35 -60 0 -61 -66 -149 -112 -149 -27 0 -68
45 -68 75 0 15 5 36 11 48 18 34 82 117 91 117 4 0 23 -14 43 -31z"/>
<path d="M10947 2345 c-63 -22 -112 -81 -131 -157 -4 -19 -11 -25 -24 -22 -20
6 -76 -47 -70 -68 4 -16 343 -338 356 -338 15 0 64 58 60 72 -1 8 -57 66 -123
129 -82 77 -121 122 -123 139 -4 34 37 112 69 129 14 8 36 11 50 8 14 -4 74
-53 135 -109 167 -156 146 -143 183 -113 17 15 31 35 31 45 0 19 -245 252
-288 274 -44 22 -85 25 -125 11z"/>
<path d="M7470 2269 c0 -4 215 -209 477 -456 263 -246 536 -504 608 -572 136
-129 164 -149 186 -135 24 15 1037 1093 1065 1133 13 18 0 19 -409 25 -727 10
-1927 14 -1927 5z"/>
<path d="M10592 1950 c-45 -10 -106 -55 -135 -98 -73 -111 -57 -232 44 -333
48 -48 130 -89 180 -89 96 0 201 73 257 178 39 74 40 91 3 126 -32 30 -61 30
-61 -1 -1 -29 -39 -106 -68 -136 -35 -38 -74 -57 -112 -57 -34 0 -90 25 -90
40 0 5 50 62 110 126 61 65 110 125 110 134 0 9 -22 33 -49 53 -67 51 -130 70
-189 57z m92 -115 c21 -16 30 -4 -126 -170 -19 -20 -19 -20 -34 -1 -8 11 -14
40 -14 64 0 38 5 50 39 83 32 32 46 39 77 39 22 0 48 -7 58 -15z"/>
<path d="M10185 1549 c-63 -37 -99 -89 -116 -169 -11 -49 -11 -50 -48 -50 -71
0 -161 -95 -161 -169 0 -18 -4 -21 -21 -16 -15 5 -29 -1 -50 -21 -16 -15 -29
-33 -29 -39 0 -6 55 -63 123 -125 67 -63 148 -139 180 -169 l57 -54 35 33 c19
19 35 39 34 44 0 6 -59 65 -130 131 -128 118 -130 121 -124 155 13 71 55 120
102 120 14 0 63 -38 138 -107 64 -60 128 -117 141 -128 l26 -20 35 39 36 39
-44 41 c-24 22 -86 79 -137 126 l-92 87 14 48 c17 56 60 105 93 105 24 0 45
-17 207 -167 49 -46 94 -83 101 -83 7 0 25 17 41 37 l28 36 -115 109 c-152
145 -190 171 -253 175 -28 2 -60 -2 -71 -8z"/>
<path d="M9481 1076 c-19 -19 -29 -38 -25 -47 9 -21 473 -453 491 -457 16 -4
73 45 73 62 0 11 -468 453 -494 468 -8 4 -25 -6 -45 -26z"/>
<path d="M9286 830 c-51 -53 -86 -97 -84 -107 2 -9 15 -25 30 -36 l28 -21 30
29 30 29 72 -70 c40 -38 120 -113 177 -167 l104 -98 -29 -30 -28 -29 31 -32
c38 -38 32 -41 146 86 l80 89 -33 29 -32 30 -29 -28 -28 -27 -43 36 c-24 20
-104 94 -178 165 l-135 130 23 24 c12 13 22 29 22 34 0 13 -43 54 -57 54 -5 0
-49 -41 -97 -90z"/>
</g>
</svg>
